<svg xmlns="http://www.w3.org/2000/svg" width="64" height="64" viewBox="0 0 64 64" fill="none">
    <g filter="url(#filter0_bd_1215_440)">
        <path d="M50.3961 42.1643C50.199 42.2773 49.9565 42.3644 49.6865 42.4136L40.986 43.9998C38.5163 44.4494 36.2979 44.6369 34.2023 44.5752C29.6177 44.4412 25.3147 43.3624 22.0874 41.535L11.4609 35.5226C9.25511 34.3254 9.68026 31.3843 10.445 30.4739L17.5528 24.7046C17.9549 24.2184 18.6491 23.817 19.5008 23.5757L33.6135 19.5497C35.1914 19.098 37.0774 19.2619 38.3009 19.9557L48.9351 25.9726C52.1594 27.7964 54.3311 28.0047 54.6251 30.6279C55.039 33.1955 54.2225 35.345 53.4696 36.7601L50.8201 41.755C50.739 41.9106 50.5918 42.0504 50.3961 42.1643Z" fill="url(#paint0_linear_1215_440)" shape-rendering="crispEdges"/>
        <path d="M50.4421 42.1903L50.4418 42.1905C50.2376 42.3074 49.9864 42.3977 49.7061 42.4488L41.0056 44.035L40.986 43.9998L41.0056 44.035C38.5301 44.4856 36.3038 44.6741 34.199 44.6121C29.5989 44.4776 25.2808 43.3952 22.042 41.5613C22.042 41.5613 22.042 41.5613 22.042 41.5613L11.4166 35.5494C11.4164 35.5494 11.4163 35.5493 11.4161 35.5492C10.2947 34.9403 9.84859 33.8935 9.77456 32.8923C9.70047 31.8903 9.99813 30.9207 10.3869 30.4579L10.3915 30.4523L10.3923 30.4526L17.4969 24.6859C17.9057 24.1934 18.6094 23.787 19.4723 23.5426L33.5847 19.5167C35.1865 19.0581 37.1024 19.2242 38.3462 19.9294L50.4421 42.1903ZM50.4421 42.1903C50.6448 42.0722 50.7976 41.9273 50.8818 41.7658L50.4421 42.1903ZM48.9804 25.9463L38.3462 19.9294L50.8819 41.7656L53.5313 36.7709C53.5313 36.7709 53.5314 36.7709 53.5314 36.7708C54.2857 35.3531 55.1041 33.1987 54.6894 30.625C54.5415 29.3063 53.9201 28.5902 52.9263 27.9754C52.4342 27.671 51.8515 27.3918 51.195 27.0773L51.1844 27.0722C50.5228 26.7552 49.7844 26.4011 48.9804 25.9463Z" stroke="url(#paint1_linear_1215_440)" stroke-width="0.105135" stroke-linecap="round" stroke-linejoin="round" shape-rendering="crispEdges"/>
    </g>
    <g filter="url(#filter1_b_1215_440)">
        <mask id="path-3-outside-1_1215_440" maskUnits="userSpaceOnUse" x="3.16268" y="12.7649" width="61.6019" height="35.3016" fill="black">
            <rect fill="white" x="3.16268" y="12.7649" width="61.6019" height="35.3016"/>
            <path d="M50.396 39.5752C50.1988 39.6882 49.9564 39.7753 49.6864 39.8245L40.9859 41.4107C38.5162 41.8602 36.2978 42.0478 34.2022 41.986C29.6176 41.852 25.3146 40.7733 22.0873 38.9459L11.4608 32.9335C10.2341 32.2397 9.92743 31.1618 10.6921 30.2515L17.5527 22.1155C17.9548 21.6293 18.649 21.2279 19.5007 20.9866L33.6134 16.9606C35.1913 16.5089 37.0772 16.6728 38.3007 17.3666L48.935 23.3835C52.1593 25.2073 54.0958 27.6565 54.3898 30.2796C54.5244 31.483 54.2224 32.7559 53.4695 34.171L50.82 39.1659C50.7388 39.3215 50.5916 39.4613 50.396 39.5752Z"/>
        </mask>
        <path d="M50.396 39.5752C50.1988 39.6882 49.9564 39.7753 49.6864 39.8245L40.9859 41.4107C38.5162 41.8602 36.2978 42.0478 34.2022 41.986C29.6176 41.852 25.3146 40.7733 22.0873 38.9459L11.4608 32.9335C10.2341 32.2397 9.92743 31.1618 10.6921 30.2515L17.5527 22.1155C17.9548 21.6293 18.649 21.2279 19.5007 20.9866L33.6134 16.9606C35.1913 16.5089 37.0772 16.6728 38.3007 17.3666L48.935 23.3835C52.1593 25.2073 54.0958 27.6565 54.3898 30.2796C54.5244 31.483 54.2224 32.7559 53.4695 34.171L50.82 39.1659C50.7388 39.3215 50.5916 39.4613 50.396 39.5752Z" fill="url(#paint2_linear_1215_440)"/>
        <path d="M50.6563 39.7244C50.8001 39.642 50.8001 39.5084 50.6563 39.4261C50.5126 39.3437 50.2795 39.3437 50.1357 39.4261L50.6563 39.7244ZM49.6864 39.8245L49.5748 39.6235L49.5748 39.6235L49.6864 39.8245ZM40.9859 41.4107L41.0974 41.6117L41.0975 41.6117L40.9859 41.4107ZM34.2022 41.986L34.2211 41.7754L34.221 41.7754L34.2022 41.986ZM22.0873 38.9459L22.346 38.7958L22.3459 38.7958L22.0873 38.9459ZM11.4608 32.9335L11.7194 32.7834L11.7194 32.7833L11.4608 32.9335ZM10.6921 30.2515L10.3607 30.1597L10.3605 30.16L10.6921 30.2515ZM17.5527 22.1155L17.8841 22.2073L17.8853 22.2058L17.5527 22.1155ZM19.5007 20.9866L19.6639 21.1757L19.6648 21.1755L19.5007 20.9866ZM33.6134 16.9606L33.7775 17.1494L33.7779 17.1493L33.6134 16.9606ZM38.3007 17.3666L38.0418 17.5166L38.0421 17.5167L38.3007 17.3666ZM48.935 23.3835L48.6764 23.5336L48.6764 23.5336L48.935 23.3835ZM54.3898 30.2796L54.7572 30.2661L54.7572 30.2661L54.3898 30.2796ZM53.4695 34.171L53.1174 34.1095L53.1173 34.1096L53.4695 34.171ZM50.82 39.1659L50.4678 39.1046L50.4673 39.1055L50.82 39.1659ZM50.1337 39.4272C49.9911 39.5103 49.9929 39.6438 50.1378 39.7256C50.2827 39.8073 50.5158 39.8062 50.6584 39.7232L50.1337 39.4272ZM50.1357 39.4261C49.9781 39.5164 49.786 39.585 49.5748 39.6235L49.798 40.0255C50.1268 39.9656 50.4196 39.86 50.6563 39.7244L50.1357 39.4261ZM49.5748 39.6235L40.8743 41.2097L41.0975 41.6117L49.798 40.0255L49.5748 39.6235ZM40.8745 41.2096C38.4375 41.6532 36.2637 41.8356 34.2211 41.7754L34.1833 42.1967C36.3318 42.26 38.5949 42.0673 41.0974 41.6117L40.8745 41.2096ZM34.221 41.7754C29.7253 41.644 25.5081 40.5863 22.346 38.7958L21.8285 39.096C25.1211 40.9603 29.5099 42.0601 34.1835 42.1967L34.221 41.7754ZM22.3459 38.7958L11.7194 32.7834L11.2022 33.0836L21.8286 39.096L22.3459 38.7958ZM11.7194 32.7833C10.6086 32.1551 10.3249 31.175 11.0238 30.343L10.3605 30.16C9.52995 31.1487 9.85969 32.3243 11.2022 33.0836L11.7194 32.7833ZM11.0236 30.3432L17.8841 22.2073L17.2213 22.0237L10.3607 30.1597L11.0236 30.3432ZM17.8853 22.2058C18.2512 21.7634 18.885 21.3964 19.6639 21.1757L19.3376 20.7975C18.4129 21.0595 17.6583 21.4953 17.2201 22.0251L17.8853 22.2058ZM19.6648 21.1755L33.7775 17.1494L33.4494 16.7718L19.3367 20.7978L19.6648 21.1755ZM33.7779 17.1493C35.2192 16.7367 36.9339 16.8883 38.0418 17.5166L38.5597 17.2167C37.2206 16.4573 35.1633 16.2811 33.4489 16.7719L33.7779 17.1493ZM38.0421 17.5167L48.6764 23.5336L49.1936 23.2334L38.5594 17.2165L38.0421 17.5167ZM48.6764 23.5336C51.8355 25.3206 53.7342 27.7209 54.0225 30.2932L54.7572 30.2661C54.4574 27.5921 52.4831 25.0941 49.1936 23.2334L48.6764 23.5336ZM54.0225 30.2931C54.1536 31.4661 53.8603 32.7133 53.1174 34.1095L53.8216 34.2325C54.5845 32.7986 54.8951 31.4999 54.7572 30.2661L54.0225 30.2931ZM53.1173 34.1096L50.4678 39.1046L51.1722 39.2273L53.8217 34.2323L53.1173 34.1096ZM50.4673 39.1055C50.4039 39.2272 50.2885 39.3371 50.1337 39.4272L50.6584 39.7232C50.8948 39.5855 51.0738 39.4159 51.1727 39.2263L50.4673 39.1055Z" fill="url(#paint3_linear_1215_440)" mask="url(#path-3-outside-1_1215_440)"/>
    </g>
    <g filter="url(#filter2_d_1215_440)">
        <path d="M11.9481 21.2847L12.5841 20.9203C23.4663 14.6841 41.5824 15.7079 50.1292 23.0421L48.1096 26.7601C47.7758 27.3747 47.1127 27.9134 46.2144 28.2998L34.9807 29.9807C34.1357 30.1071 33.2454 30.0929 32.414 29.9397L21.528 27.934L11.9481 21.2847Z" fill="#FF5A5A"/>
    </g>
    <g filter="url(#filter3_b_1215_440)">
        <path d="M47.5449 28.5302L47.5445 28.5304C47.3404 28.6474 47.0892 28.7377 46.8089 28.7888L38.1084 30.375L38.0888 30.3398L38.1084 30.375C35.6329 30.8256 33.4066 31.014 31.3018 30.952C26.7016 30.8176 22.3836 29.7352 19.1448 27.9013C19.1448 27.9013 19.1448 27.9013 19.1448 27.9013L8.51936 21.8894C8.5192 21.8893 8.51904 21.8892 8.51887 21.8891C7.39751 21.2803 6.95138 20.2335 6.87734 19.2323C6.80325 18.2303 7.10091 17.2606 7.48964 16.7979L7.49433 16.7923L7.49506 16.7926L14.5997 11.0258C15.0085 10.5333 15.7122 10.127 16.575 9.88256L30.6875 5.85662C32.2893 5.39804 34.2052 5.56413 35.449 6.26939L47.5449 28.5302ZM47.5449 28.5302C47.7476 28.4122 47.9003 28.2672 47.9846 28.1058L47.5449 28.5302ZM46.0832 12.2863L35.449 6.26941L47.9847 28.1056L50.6341 23.1108C50.6341 23.1108 50.6341 23.1108 50.6341 23.1108C51.3885 21.693 52.2069 19.5387 51.7922 16.965C51.6443 15.6463 51.0229 14.9302 50.0291 14.3153C49.537 14.0109 48.9543 13.7318 48.2978 13.4172L48.2872 13.4121C47.6256 13.0952 46.8872 12.741 46.0832 12.2863Z" fill="white" fill-opacity="0.5" stroke="url(#paint4_linear_1215_440)" stroke-width="0.105135" stroke-linecap="round" stroke-linejoin="round"/>
    </g>
    <g filter="url(#filter4_b_1215_440)">
        <mask id="path-7-outside-2_1215_440" maskUnits="userSpaceOnUse" x="0.265711" y="-0.895119" width="61.6019" height="35.3016" fill="black">
            <rect fill="white" x="0.265711" y="-0.895119" width="61.6019" height="35.3016"/>
            <path d="M47.4991 25.9152C47.3019 26.0282 47.0594 26.1153 46.7894 26.1645L38.089 27.7507C35.6192 28.2003 33.4008 28.3878 31.3053 28.3261C26.7207 28.1921 22.4177 27.1134 19.1903 25.2859L8.56385 19.2735C7.33717 18.5797 7.03046 17.5019 7.79517 16.5915L14.6557 8.4555C15.0578 7.96935 15.752 7.56795 16.6038 7.32664L30.7165 3.30063C32.2943 2.84889 34.1803 3.01284 35.4038 3.70664L46.038 9.72352C49.2623 11.5474 51.1988 13.9965 51.4929 16.6197C51.6274 17.823 51.3254 19.096 50.5726 20.511L47.923 25.506C47.8419 25.6616 47.6947 25.8014 47.4991 25.9152Z"/>
        </mask>
        <path d="M47.4991 25.9152C47.3019 26.0282 47.0594 26.1153 46.7894 26.1645L38.089 27.7507C35.6192 28.2003 33.4008 28.3878 31.3053 28.3261C26.7207 28.1921 22.4177 27.1134 19.1903 25.2859L8.56385 19.2735C7.33717 18.5797 7.03046 17.5019 7.79517 16.5915L14.6557 8.4555C15.0578 7.96935 15.752 7.56795 16.6038 7.32664L30.7165 3.30063C32.2943 2.84889 34.1803 3.01284 35.4038 3.70664L46.038 9.72352C49.2623 11.5474 51.1988 13.9965 51.4929 16.6197C51.6274 17.823 51.3254 19.096 50.5726 20.511L47.923 25.506C47.8419 25.6616 47.6947 25.8014 47.4991 25.9152Z" fill="white" fill-opacity="0.5"/>
        <path d="M47.7593 26.0644C47.9031 25.982 47.9031 25.8485 47.7593 25.7661C47.6156 25.6837 47.3825 25.6837 47.2388 25.7661L47.7593 26.0644ZM46.7894 26.1645L46.6779 25.9635L46.6778 25.9635L46.7894 26.1645ZM38.089 27.7507L38.2004 27.9517L38.2006 27.9517L38.089 27.7507ZM31.3053 28.3261L31.3242 28.1154L31.324 28.1154L31.3053 28.3261ZM19.1903 25.2859L19.449 25.1359L19.4489 25.1358L19.1903 25.2859ZM8.56385 19.2735L8.82247 19.1234L8.82242 19.1234L8.56385 19.2735ZM7.79517 16.5915L7.46374 16.4997L7.4635 16.5L7.79517 16.5915ZM14.6557 8.4555L14.9872 8.54728L14.9884 8.54584L14.6557 8.4555ZM16.6038 7.32664L16.7669 7.51574L16.7678 7.51548L16.6038 7.32664ZM30.7165 3.30063L30.8805 3.48947L30.881 3.48934L30.7165 3.30063ZM35.4038 3.70664L35.1449 3.85658L35.1452 3.85674L35.4038 3.70664ZM46.038 9.72352L45.7794 9.87363L45.7794 9.87365L46.038 9.72352ZM51.4929 16.6197L51.8602 16.6062L51.8602 16.6061L51.4929 16.6197ZM50.5726 20.511L50.2204 20.4495L50.2204 20.4497L50.5726 20.511ZM47.923 25.506L47.5708 25.4446L47.5703 25.4456L47.923 25.506ZM47.2367 25.7673C47.0941 25.8503 47.0959 25.9839 47.2408 26.0656C47.3857 26.1473 47.6188 26.1462 47.7614 26.0632L47.2367 25.7673ZM47.2388 25.7661C47.0811 25.8564 46.889 25.925 46.6779 25.9635L46.901 26.3655C47.2299 26.3056 47.5226 26.2001 47.7593 26.0644L47.2388 25.7661ZM46.6778 25.9635L37.9774 27.5497L38.2006 27.9517L46.901 26.3655L46.6778 25.9635ZM37.9775 27.5497C35.5405 27.9933 33.3667 28.1756 31.3242 28.1154L31.2864 28.5367C33.4348 28.6 35.6979 28.4073 38.2004 27.9517L37.9775 27.5497ZM31.324 28.1154C26.8283 27.984 22.6111 26.9264 19.449 25.1359L18.9316 25.436C22.2242 27.3004 26.613 28.4001 31.2865 28.5367L31.324 28.1154ZM19.4489 25.1358L8.82247 19.1234L8.30522 19.4236L18.9317 25.436L19.4489 25.1358ZM8.82242 19.1234C7.71163 18.4951 7.42794 17.515 8.12685 16.683L7.4635 16.5C6.63298 17.4887 6.96272 18.6643 8.30528 19.4237L8.82242 19.1234ZM8.12661 16.6833L14.9872 8.54728L14.3243 8.36372L7.46374 16.4997L8.12661 16.6833ZM14.9884 8.54584C15.3543 8.10341 15.988 7.7364 16.7669 7.51574L16.4406 7.13754C15.516 7.3995 14.7613 7.83529 14.3231 8.36515L14.9884 8.54584ZM16.7678 7.51548L30.8805 3.48947L30.5524 3.11179L16.4397 7.1378L16.7678 7.51548ZM30.881 3.48934C32.3222 3.07671 34.037 3.22834 35.1449 3.85658L35.6627 3.55669C34.3236 2.79734 32.2664 2.62108 30.5519 3.11193L30.881 3.48934ZM35.1452 3.85674L45.7794 9.87363L46.2966 9.57341L35.6624 3.55653L35.1452 3.85674ZM45.7794 9.87365C48.9385 11.6606 50.8372 14.0609 51.1255 16.6332L51.8602 16.6061C51.5605 13.9321 49.5861 11.4341 46.2966 9.57339L45.7794 9.87365ZM51.1255 16.6331C51.2567 17.8061 50.9633 19.0533 50.2204 20.4495L50.9247 20.5725C51.6876 19.1386 51.9982 17.84 51.8602 16.6062L51.1255 16.6331ZM50.2204 20.4497L47.5708 25.4446L48.2752 25.5673L50.9247 20.5724L50.2204 20.4497ZM47.5703 25.4456C47.5069 25.5672 47.3915 25.6772 47.2367 25.7673L47.7614 26.0632C47.9979 25.9256 48.1768 25.7559 48.2757 25.5664L47.5703 25.4456Z" fill="url(#paint5_linear_1215_440)" mask="url(#path-7-outside-2_1215_440)"/>
    </g>
    <g filter="url(#filter5_i_1215_440)">
        <path d="M27.0809 19.0891L27.0809 19.0892C27.0739 19.5901 27.7768 19.9879 28.653 19.9796L34.5552 19.9136C34.5552 19.9136 34.5552 19.9136 34.5552 19.9136C34.9951 19.9086 35.3913 19.8019 35.6815 19.6339C35.9716 19.466 36.1518 19.2373 36.1546 18.9852L36.1546 18.9852L36.2397 12.0194L36.2397 12.0193C36.2482 11.5194 35.5439 11.1207 34.6661 11.1299C33.7906 11.1391 33.0739 11.5547 33.0668 12.0583L27.0809 19.0891ZM27.0809 19.0891C27.0864 18.5865 27.8029 18.1708 28.6803 18.1607C28.6803 18.1607 28.6803 18.1607 28.6803 18.1607L32.9262 18.1126L32.9922 18.1119L32.9926 18.0741L33.0668 12.0584L27.0809 19.0891Z" fill="#FF4B4B" stroke="url(#paint6_linear_1215_440)" stroke-width="0.11048"/>
    </g>
    <defs>
        <filter id="filter0_bd_1215_440" x="0.69873" y="16.2228" width="63.167" height="47.4377" filterUnits="userSpaceOnUse" color-interpolation-filters="sRGB">
            <feFlood flood-opacity="0" result="BackgroundImageFix"/>
            <feGaussianBlur in="BackgroundImageFix" stdDeviation="1.5"/>
            <feComposite in2="SourceAlpha" operator="in" result="effect1_backgroundBlur_1215_440"/>
            <feColorMatrix in="SourceAlpha" type="matrix" values="0 0 0 0 0 0 0 0 0 0 0 0 0 0 0 0 0 0 127 0" result="hardAlpha"/>
            <feOffset dy="10"/>
            <feGaussianBlur stdDeviation="4.5"/>
            <feComposite in2="hardAlpha" operator="out"/>
            <feColorMatrix type="matrix" values="0 0 0 0 1 0 0 0 0 0.343982 0 0 0 0 0.343982 0 0 0 0.5 0"/>
            <feBlend mode="normal" in2="effect1_backgroundBlur_1215_440" result="effect2_dropShadow_1215_440"/>
            <feBlend mode="normal" in="SourceGraphic" in2="effect2_dropShadow_1215_440" result="shape"/>
        </filter>
        <filter id="filter1_b_1215_440" x="7.38435" y="13.9735" width="49.928" height="30.7582" filterUnits="userSpaceOnUse" color-interpolation-filters="sRGB">
            <feFlood flood-opacity="0" result="BackgroundImageFix"/>
            <feGaussianBlur in="BackgroundImageFix" stdDeviation="1.26162"/>
            <feComposite in2="SourceAlpha" operator="in" result="effect1_backgroundBlur_1215_440"/>
            <feBlend mode="normal" in="SourceGraphic" in2="effect1_backgroundBlur_1215_440" result="shape"/>
        </filter>
        <filter id="filter2_d_1215_440" x="7.94812" y="15.8241" width="46.1812" height="21.2419" filterUnits="userSpaceOnUse" color-interpolation-filters="sRGB">
            <feFlood flood-opacity="0" result="BackgroundImageFix"/>
            <feColorMatrix in="SourceAlpha" type="matrix" values="0 0 0 0 0 0 0 0 0 0 0 0 0 0 0 0 0 0 127 0" result="hardAlpha"/>
            <feOffset dy="3"/>
            <feGaussianBlur stdDeviation="2"/>
            <feComposite in2="hardAlpha" operator="out"/>
            <feColorMatrix type="matrix" values="0 0 0 0 0.7875 0 0 0 0 0.00328125 0 0 0 0 0.00328125 0 0 0 1 0"/>
            <feBlend mode="normal" in2="BackgroundImageFix" result="effect1_dropShadow_1215_440"/>
            <feBlend mode="normal" in="SourceGraphic" in2="effect1_dropShadow_1215_440" result="shape"/>
        </filter>
        <filter id="filter3_b_1215_440" x="4.92953" y="3.69079" width="48.911" height="29.1817" filterUnits="userSpaceOnUse" color-interpolation-filters="sRGB">
            <feFlood flood-opacity="0" result="BackgroundImageFix"/>
            <feGaussianBlur in="BackgroundImageFix" stdDeviation="0.935992"/>
            <feComposite in2="SourceAlpha" operator="in" result="effect1_backgroundBlur_1215_440"/>
            <feBlend mode="normal" in="SourceGraphic" in2="effect1_backgroundBlur_1215_440" result="shape"/>
        </filter>
        <filter id="filter4_b_1215_440" x="3.26665" y="-0.907238" width="52.3694" height="33.1997" filterUnits="userSpaceOnUse" color-interpolation-filters="sRGB">
            <feFlood flood-opacity="0" result="BackgroundImageFix"/>
            <feGaussianBlur in="BackgroundImageFix" stdDeviation="1.87198"/>
            <feComposite in2="SourceAlpha" operator="in" result="effect1_backgroundBlur_1215_440"/>
            <feBlend mode="normal" in="SourceGraphic" in2="effect1_backgroundBlur_1215_440" result="shape"/>
        </filter>
        <filter id="filter5_i_1215_440" x="27.0131" y="11.0909" width="9.29456" height="9.13941" filterUnits="userSpaceOnUse" color-interpolation-filters="sRGB">
            <feFlood flood-opacity="0" result="BackgroundImageFix"/>
            <feBlend mode="normal" in="SourceGraphic" in2="BackgroundImageFix" result="shape"/>
            <feColorMatrix in="SourceAlpha" type="matrix" values="0 0 0 0 0 0 0 0 0 0 0 0 0 0 0 0 0 0 127 0" result="hardAlpha"/>
            <feOffset dy="0.492332"/>
            <feGaussianBlur stdDeviation="0.105891"/>
            <feComposite in2="hardAlpha" operator="arithmetic" k2="-1" k3="1"/>
            <feColorMatrix type="matrix" values="0 0 0 0 1 0 0 0 0 1 0 0 0 0 1 0 0 0 1 0"/>
            <feBlend mode="normal" in2="shape" result="effect1_innerShadow_1215_440"/>
        </filter>
        <linearGradient id="paint0_linear_1215_440" x1="18.536" y1="23.9464" x2="34.2713" y2="51.4048" gradientUnits="userSpaceOnUse">
            <stop stop-color="#EF2424"/>
            <stop offset="1" stop-color="#FF7676"/>
        </linearGradient>
        <linearGradient id="paint1_linear_1215_440" x1="12.947" y1="31.3987" x2="55.6061" y2="33.6207" gradientUnits="userSpaceOnUse">
            <stop stop-color="white" stop-opacity="0.25"/>
            <stop offset="1" stop-color="white" stop-opacity="0"/>
        </linearGradient>
        <linearGradient id="paint2_linear_1215_440" x1="18.4329" y1="21.4163" x2="34.1682" y2="48.8747" gradientUnits="userSpaceOnUse">
            <stop stop-color="#EF2424"/>
            <stop offset="1" stop-color="#FF7676"/>
        </linearGradient>
        <linearGradient id="paint3_linear_1215_440" x1="32.3054" y1="27.3397" x2="33.261" y2="45.3415" gradientUnits="userSpaceOnUse">
            <stop stop-color="white" stop-opacity="0.43"/>
            <stop offset="0.72568" stop-color="white"/>
            <stop offset="1" stop-color="white" stop-opacity="0"/>
        </linearGradient>
        <linearGradient id="paint4_linear_1215_440" x1="10.0498" y1="17.7386" x2="52.7089" y2="19.9607" gradientUnits="userSpaceOnUse">
            <stop stop-color="white" stop-opacity="0.25"/>
            <stop offset="1" stop-color="white" stop-opacity="0"/>
        </linearGradient>
        <linearGradient id="paint5_linear_1215_440" x1="38.9047" y1="29.902" x2="41.6565" y2="4.58625" gradientUnits="userSpaceOnUse">
            <stop stop-color="white" stop-opacity="0.79"/>
            <stop offset="1" stop-color="white" stop-opacity="0"/>
        </linearGradient>
        <linearGradient id="paint6_linear_1215_440" x1="25.9884" y1="16.7957" x2="37.3585" y2="21.9779" gradientUnits="userSpaceOnUse">
            <stop stop-color="white" stop-opacity="0.25"/>
            <stop offset="1" stop-color="white" stop-opacity="0"/>
        </linearGradient>
    </defs>
</svg>