<svg xmlns="http://www.w3.org/2000/svg" width="20" height="20" viewBox="0 0 20 20" fill="none">
    <path d="M3.67135 5.01429C3.30053 4.64347 3.30053 4.04225 3.67135 3.67143C4.04217 3.30061 4.64338 3.30061 5.0142 3.67143L9.66658 8.32381L14.319 3.67143C14.6898 3.30061 15.291 3.30061 15.6618 3.67143C16.0326 4.04225 16.0326 4.64347 15.6618 5.01429L11.0094 9.66667L15.6618 14.319C16.0326 14.6899 16.0326 15.2911 15.6618 15.6619C15.291 16.0327 14.6898 16.0327 14.319 15.6619L9.66658 11.0095L5.0142 15.6619C4.64338 16.0327 4.04217 16.0327 3.67135 15.6619C3.30053 15.2911 3.30053 14.6899 3.67135 14.319L8.32373 9.66667L3.67135 5.01429Z" fill="#616380"/>
</svg>