<svg xmlns="http://www.w3.org/2000/svg" width="20" height="20" viewBox="0 0 20 20" fill="none">
    <path d="M13.8712 12.4424C13.6836 12.2545 13.429 12.1488 13.1634 12.1488H12.8254L12.5586 11.8915C13.4924 10.8052 14.0547 9.39488 14.0547 7.86067C14.0547 4.43967 11.2816 1.66666 7.86064 1.66666C4.43964 1.66666 1.66663 4.43967 1.66663 7.86067C1.66663 11.2817 4.43964 14.0547 7.86064 14.0547C9.39485 14.0547 10.8052 13.4925 11.8915 12.5586L12.1488 12.8254V13.1634C12.1488 13.429 12.2544 13.6836 12.4424 13.8712L16.2063 17.6276C16.597 18.0175 17.2331 18.0136 17.6234 17.6234C18.0136 17.2331 18.0175 16.597 17.6276 16.2064L13.8712 12.4424ZM7.86064 12.1488C5.48786 12.1488 3.57248 10.2335 3.57248 7.86067C3.57248 5.48789 5.48786 3.57251 7.86064 3.57251C10.2334 3.57251 12.1488 5.48789 12.1488 7.86067C12.1488 10.2335 10.2334 12.1488 7.86064 12.1488Z" fill="#646778"/>
</svg>