<svg xmlns="http://www.w3.org/2000/svg" width="29" height="28" viewBox="0 0 29 28" fill="none">
    <path d="M23.3939 7.59887H25.6666C26.2189 7.59887 26.6666 8.04659 26.6666 8.59887V8.91902C26.6666 9.47131 26.2189 9.91902 25.6666 9.91902H25.5757V22.6798H25.6666C26.2189 22.6798 26.6666 23.1276 26.6666 23.6798V24C26.6666 24.5523 26.2189 25 25.6666 25H3.66663C3.11434 25 2.66663 24.5523 2.66663 24V23.6798C2.66663 23.1276 3.11434 22.6798 3.66663 22.6798H3.75754V9.91902H3.66663C3.11434 9.91902 2.66663 9.47131 2.66663 8.91902V8.59887C2.66663 8.04659 3.11434 7.59887 3.66663 7.59887H5.93935V4.16008C5.93935 3.8524 6.05429 3.55733 6.25887 3.33978C6.46346 3.12222 6.74094 3 7.03026 3H22.303C22.5923 3 22.8698 3.12222 23.0744 3.33978C23.279 3.55733 23.3939 3.8524 23.3939 4.16008V7.59887ZM23.3939 9.91902H5.93935V22.6798H9.21208V15.5593C9.21208 15.007 9.6598 14.5593 10.2121 14.5593H10.3939C10.9462 14.5593 11.3939 15.007 11.3939 15.5593V22.6798H13.5757V15.5593C13.5757 15.007 14.0234 14.5593 14.5757 14.5593H14.7575C15.3098 14.5593 15.7575 15.007 15.7575 15.5593V22.6798H17.9394V15.5593C17.9394 15.007 18.3871 14.5593 18.9394 14.5593H19.1212C19.6735 14.5593 20.1212 15.007 20.1212 15.5593V22.6798H23.3939V9.91902ZM8.12117 5.32015V7.59887H21.2121V5.32015H8.12117Z" fill="#0073FF"/>
</svg>