<svg xmlns="http://www.w3.org/2000/svg" width="28" height="28" viewBox="0 0 28 28" fill="none">
    <path d="M5.83334 4.66668V11.6958V11.6667V23.3333V4.66668ZM8.16667 16.3333H12.25C12.425 15.8861 12.6389 15.4681 12.8917 15.0792C13.1444 14.6903 13.4361 14.3306 13.7667 14H8.16667V16.3333ZM8.16667 21H11.8708C11.7736 20.6111 11.7102 20.2222 11.6807 19.8333C11.6511 19.4445 11.6562 19.0556 11.6958 18.6667H8.16667V21ZM5.83334 25.6667C5.19167 25.6667 4.64217 25.438 4.18484 24.9807C3.7275 24.5233 3.49922 23.9742 3.5 23.3333V4.66668C3.5 4.02501 3.72867 3.47551 4.186 3.01818C4.64334 2.56085 5.19245 2.33257 5.83334 2.33335H15.1667L22.1667 9.33335V12.25C21.7972 12.0945 21.4181 11.9727 21.0292 11.8848C20.6403 11.797 20.2417 11.734 19.8333 11.6958V10.5H14V4.66668H5.83334V23.3333H12.8625C13.1736 23.8 13.5236 24.2328 13.9125 24.6318C14.3014 25.0308 14.7292 25.3758 15.1958 25.6667H5.83334ZM19.25 22.1667C20.0667 22.1667 20.7569 21.8847 21.3208 21.3208C21.8847 20.757 22.1667 20.0667 22.1667 19.25C22.1667 18.4333 21.8847 17.7431 21.3208 17.1792C20.7569 16.6153 20.0667 16.3333 19.25 16.3333C18.4333 16.3333 17.7431 16.6153 17.1792 17.1792C16.6153 17.7431 16.3333 18.4333 16.3333 19.25C16.3333 20.0667 16.6153 20.757 17.1792 21.3208C17.7431 21.8847 18.4333 22.1667 19.25 22.1667ZM25.2 26.8333L22.05 23.6833C21.6417 23.9556 21.1995 24.1597 20.7235 24.2958C20.2475 24.432 19.7563 24.5 19.25 24.5C17.7917 24.5 16.5523 23.9894 15.5318 22.9682C14.5114 21.947 14.0008 20.7076 14 19.25C14 17.7917 14.5106 16.5519 15.5318 15.5307C16.5531 14.5095 17.7924 13.9992 19.25 14C20.7083 14 21.9481 14.5106 22.9693 15.5318C23.9906 16.5531 24.5008 17.7925 24.5 19.25C24.5 19.7556 24.4319 20.2467 24.2958 20.7235C24.1597 21.2003 23.9556 21.6425 23.6833 22.05L26.8333 25.2L25.2 26.8333Z" fill="#575965"/>
</svg>